<svg xmlns="http://www.w3.org/2000/svg" width="490.868" height="129.458" viewBox="0 0 490.868 129.458">
  <g id="Logo_Tuatara_BA" data-name="Logo Tuatara BA" transform="translate(8830.262 2127.521)">
    <g id="Grupo_1724" data-name="Grupo 1724" transform="translate(-8890.089 -2848.305)">
      <g id="Grupo_1719" data-name="Grupo 1719" transform="translate(180.765 803.421)">
        <path id="Trazado_2993" data-name="Trazado 2993" d="M442.3,985.8a6.532,6.532,0,0,1,1.245,4.082,6.384,6.384,0,0,1-2.233,5.235,9.743,9.743,0,0,1-6.333,1.83H424.547V970.882h10.067a9.449,9.449,0,0,1,6.15,1.775,6.191,6.191,0,0,1,2.16,5.07,6.042,6.042,0,0,1-1.08,3.624,6.378,6.378,0,0,1-3.02,2.233A6.2,6.2,0,0,1,442.3,985.8Zm-15.521-3.093h7.5a7.528,7.528,0,0,0,4.759-1.281,4.489,4.489,0,0,0,1.611-3.734q0-4.868-6.37-4.869h-7.5Zm12.9,11.056a4.582,4.582,0,0,0,1.556-3.807q0-5.234-6.406-5.235H426.78v10.287h8.054A7.723,7.723,0,0,0,439.684,993.761Z" transform="translate(-424.547 -970.589)" fill="#fff"/>
        <path id="Trazado_2994" data-name="Trazado 2994" d="M503.839,995.038a10.491,10.491,0,0,1-4.027-4.612,16.568,16.568,0,0,1-1.409-7.1,16.754,16.754,0,0,1,1.391-7.1,10.385,10.385,0,0,1,4.008-4.612,12.793,12.793,0,0,1,12.428,0,10.368,10.368,0,0,1,4.027,4.594,18.711,18.711,0,0,1-.018,14.2,10.483,10.483,0,0,1-4.027,4.631,12.685,12.685,0,0,1-12.373,0Zm13-3.368q2.434-2.965,2.435-8.383t-2.416-8.346a9.423,9.423,0,0,0-13.672.019q-2.435,2.947-2.435,8.328t2.435,8.365a9.323,9.323,0,0,0,13.654.019Z" transform="translate(-473.913 -969.999)" fill="#fff"/>
        <path id="Trazado_2995" data-name="Trazado 2995" d="M590.075,994.622q-2.581-2.617-2.581-7.706V970.882h2.27v16.29q0,8.054,7.87,8.053a7.829,7.829,0,0,0,5.839-2.031q1.995-2.032,1.995-6.022v-16.29H607.7v16.034q0,5.089-2.563,7.706t-7.5,2.618Q592.655,997.239,590.075,994.622Z" transform="translate(-533.462 -970.589)" fill="#fff"/>
        <path id="Trazado_2996" data-name="Trazado 2996" d="M670.906,996.946V972.859h-9.335v-1.977H682.51v1.977h-9.335v24.087Z" transform="translate(-582.976 -970.589)" fill="#fff"/>
        <path id="Trazado_2997" data-name="Trazado 2997" d="M738.407,996.946V970.882h2.27v26.064Z" transform="translate(-634.334 -970.589)" fill="#fff"/>
        <path id="Trazado_2998" data-name="Trazado 2998" d="M785,1001.7l-1.574,1.647a20.514,20.514,0,0,1-2.947-2.965,27,27,0,0,1-2.654-3.807q-.953.073-1.427.073a11.531,11.531,0,0,1-6.169-1.611,10.491,10.491,0,0,1-4.026-4.612,16.563,16.563,0,0,1-1.41-7.1,16.754,16.754,0,0,1,1.391-7.1,10.386,10.386,0,0,1,4.009-4.612,12.793,12.793,0,0,1,12.428,0,10.371,10.371,0,0,1,4.027,4.594,16.639,16.639,0,0,1,1.391,7.083A15.705,15.705,0,0,1,786,991.6a10.072,10.072,0,0,1-5.729,4.5A20.267,20.267,0,0,0,785,1001.7Zm-15.43-10.049a9.323,9.323,0,0,0,13.654.019q2.434-2.965,2.435-8.383t-2.416-8.346a9.424,9.424,0,0,0-13.673.019q-2.435,2.947-2.434,8.328T769.568,991.652Z" transform="translate(-651.969 -969.999)" fill="#fff"/>
        <path id="Trazado_2999" data-name="Trazado 2999" d="M856.463,994.622q-2.58-2.617-2.581-7.706V970.882h2.27v16.29q0,8.054,7.87,8.053a7.829,7.829,0,0,0,5.839-2.031q1.995-2.032,2-6.022v-16.29h2.233v16.034q0,5.089-2.563,7.706t-7.5,2.618Q859.044,997.239,856.463,994.622Z" transform="translate(-711.519 -970.589)" fill="#fff"/>
        <path id="Trazado_3000" data-name="Trazado 3000" d="M936.791,996.946V970.882h16.071v1.94H939.024v9.884h13.105v2.013H939.024v10.287h13.838v1.94Z" transform="translate(-766.936 -970.589)" fill="#fff"/>
        <path id="Trazado_3001" data-name="Trazado 3001" d="M1049.02,996.946l-2.965-6.955H1032l-3,6.955h-2.343L1038,970.882h2.05l11.312,26.064Zm-16.18-8.932h12.336l-6.15-14.386Z" transform="translate(-827.001 -970.589)" fill="#fff"/>
        <path id="Trazado_3002" data-name="Trazado 3002" d="M1131.788,982.994v11.9a14.306,14.306,0,0,1-3.917,1.263,25.687,25.687,0,0,1-5.015.494,12.839,12.839,0,0,1-6.553-1.593,10.36,10.36,0,0,1-4.192-4.594,18.436,18.436,0,0,1,0-14.313,10.316,10.316,0,0,1,4.155-4.576,12.529,12.529,0,0,1,6.406-1.574,11.833,11.833,0,0,1,8.859,3.4l-.952,1.794a12.684,12.684,0,0,0-3.752-2.434,11.248,11.248,0,0,0-4.191-.75,8.863,8.863,0,0,0-7.12,2.928q-2.508,2.929-2.507,8.346,0,5.528,2.544,8.456t7.339,2.929a18.953,18.953,0,0,0,6.846-1.208v-8.529h-6.882v-1.94Z" transform="translate(-883.156 -969.999)" fill="#fff"/>
        <path id="Trazado_3003" data-name="Trazado 3003" d="M1196,996.946V970.882h16.071v1.94h-13.838v9.884h13.105v2.013h-13.105v10.287h13.838v1.94Z" transform="translate(-940.196 -970.589)" fill="#fff"/>
        <path id="Trazado_3004" data-name="Trazado 3004" d="M1281.1,970.882h2.123v26.064h-1.757l-16.546-22.22v22.22h-2.124V970.882h1.794L1281.1,993.1Z" transform="translate(-984.839 -970.589)" fill="#fff"/>
        <path id="Trazado_3005" data-name="Trazado 3005" d="M1349.463,995.056a10.364,10.364,0,0,1-4.1-4.612,16.6,16.6,0,0,1-1.428-7.157,16.389,16.389,0,0,1,1.428-7.1,10.386,10.386,0,0,1,4.1-4.594,12.068,12.068,0,0,1,6.3-1.592,13.8,13.8,0,0,1,4.96.86,10.761,10.761,0,0,1,3.9,2.544l-.952,1.794a12.769,12.769,0,0,0-3.734-2.434,11.107,11.107,0,0,0-4.173-.75,8.653,8.653,0,0,0-6.992,2.947q-2.49,2.947-2.489,8.328,0,5.418,2.471,8.383a8.615,8.615,0,0,0,7.01,2.965,11.1,11.1,0,0,0,4.173-.75,12.749,12.749,0,0,0,3.734-2.435l.952,1.794a10.743,10.743,0,0,1-3.9,2.544,13.8,13.8,0,0,1-4.96.86A12.068,12.068,0,0,1,1349.463,995.056Z" transform="translate(-1039.075 -969.999)" fill="#fff"/>
        <path id="Trazado_3006" data-name="Trazado 3006" d="M1433.792,970.882l-10.067,15.338v10.726h-2.269v-10.8l-10.067-15.265h2.636l8.6,13.288,8.6-13.288Z" transform="translate(-1084.161 -970.589)" fill="#fff"/>
      </g>
      <g id="Grupo_1721" data-name="Grupo 1721" transform="translate(59.828 720.784)">
        <path id="Trazado_3007" data-name="Trazado 3007" d="M121.938,909.993c-2.487,15.044-19.707,34.614-19.707,34.614s-17.218-19.57-19.707-34.614a69.211,69.211,0,0,0-17.542,7.972c7.563,30.133,37.25,58.747,37.25,58.747s29.687-28.614,37.25-58.746A69.2,69.2,0,0,0,121.938,909.993Z" transform="translate(-63.272 -847.253)" fill="#fff"/>
        <path id="Trazado_3008" data-name="Trazado 3008" d="M127.574,763.365c3.757-2.254,7.412-3.364,9.009-3.364s5.255,1.11,9.011,3.364c.945-8.369,3.66-22.89,11.2-25.108-7.1-8.5-20.208-17.472-20.208-17.472s-13.106,8.969-20.208,17.472C123.914,740.474,126.629,755,127.574,763.365Z" transform="translate(-97.624 -720.784)" fill="#fff"/>
        <path id="Trazado_3009" data-name="Trazado 3009" d="M162.056,874.377c.465,5.54,5.038,11.009,5.038,11.009s4.575-5.47,5.038-11.009c.466-5.565-4-9.263-5.038-9.263S161.589,868.812,162.056,874.377Z" transform="translate(-128.135 -817.256)" fill="#fff"/>
        <g id="Grupo_1720" data-name="Grupo 1720" transform="translate(0 25.056)">
          <path id="Trazado_3010" data-name="Trazado 3010" d="M226.934,832.993c-.041.343-.094.69-.152,1.038A69.2,69.2,0,0,1,244.325,842a58.758,58.758,0,0,0,1.448-7.956c1.7-15.68-5.155-28.53-13.674-37.7-7.695,6.564-9.77,18.174-10.262,22.073A17.532,17.532,0,0,1,226.934,832.993Z" transform="translate(-168.116 -796.346)" fill="#fff"/>
          <path id="Trazado_3011" data-name="Trazado 3011" d="M61.536,842a69.209,69.209,0,0,1,17.542-7.972c-.058-.348-.11-.694-.152-1.038a17.529,17.529,0,0,1,5.1-14.574c-.492-3.9-2.566-15.509-10.26-22.073-8.521,9.17-15.376,22.021-13.675,37.7A58.791,58.791,0,0,0,61.536,842Z" transform="translate(-59.828 -796.346)" fill="#fff"/>
        </g>
      </g>
      <g id="Grupo_1723" data-name="Grupo 1723" transform="translate(180.765 732.807)">
        <g id="Grupo_1722" data-name="Grupo 1722" transform="translate(0 7.563)">
          <path id="Trazado_3012" data-name="Trazado 3012" d="M440.674,829.074V783.705H424.547v-3.854h36.784v3.854H445.238v45.369Z" transform="translate(-424.547 -779.851)" fill="#fff"/>
          <path id="Trazado_3013" data-name="Trazado 3013" d="M614.868,779.851h4.261l-.169,30.7a26.067,26.067,0,0,1-1.234,8.114,15.2,15.2,0,0,1-9.6,9.873,27.569,27.569,0,0,1-16.413.134,14.859,14.859,0,0,1-5.664-3.447,15.526,15.526,0,0,1-3.531-5.51,25.758,25.758,0,0,1-1.555-7.405,1.417,1.417,0,0,1-.035-.286v-.929l.2-31.238h4.226l-.1,30.866a21.939,21.939,0,0,0,.862,6.406,12.331,12.331,0,0,0,2.671,4.8,11.651,11.651,0,0,0,4.615,3.025,19.005,19.005,0,0,0,6.66,1.049,21.505,21.505,0,0,0,6.322-.846,11.037,11.037,0,0,0,4.565-2.637,11.294,11.294,0,0,0,2.756-4.633,22.752,22.752,0,0,0,.962-6.828Z" transform="translate(-529.072 -779.851)" fill="#fff"/>
          <path id="Trazado_3014" data-name="Trazado 3014" d="M741.19,829.074h-4.7l20.589-49.223h5.1l20.388,49.223H777.8l-6.05-14.4H746.938Zm6.93-17.579H770.6l-8.317-21.907-2.672-7.472-2.6,7.472Z" transform="translate(-633.053 -779.851)" fill="#fff"/>
          <path id="Trazado_3015" data-name="Trazado 3015" d="M905.326,829.074V783.705H889.2v-3.854h36.783v3.854H909.892v45.369Z" transform="translate(-735.126 -779.851)" fill="#fff"/>
          <path id="Trazado_3016" data-name="Trazado 3016" d="M1017.242,829.074h-4.7l20.59-49.223h5.105l20.386,49.223h-4.767l-6.052-14.4h-24.815Zm6.93-17.579h22.483l-8.316-21.907-2.672-7.472-2.6,7.472Z" transform="translate(-817.569 -779.851)" fill="#fff"/>
          <path id="Trazado_3017" data-name="Trazado 3017" d="M1228.813,829.074l-5.138-14.064a30.1,30.1,0,0,0-1.826-4.107,8.621,8.621,0,0,0-2.163-2.621,7.581,7.581,0,0,0-2.975-1.385,18.965,18.965,0,0,0-4.26-.406h-10.077v22.583h-4.394V779.851h11.562q2,0,4.345.068a37.1,37.1,0,0,1,4.715.44,26.367,26.367,0,0,1,4.564,1.132,12.582,12.582,0,0,1,3.9,2.163,10.305,10.305,0,0,1,2.739,3.551,12.066,12.066,0,0,1,1.03,5.256,11.7,11.7,0,0,1-.844,4.513,10.782,10.782,0,0,1-2.4,3.585,13.453,13.453,0,0,1-3.719,2.569,17.981,17.981,0,0,1-4.8,1.47,1.085,1.085,0,0,0-.069.272.067.067,0,0,0,.019.05.066.066,0,0,1,.015.05,9.226,9.226,0,0,1,3.94,1.639,10.971,10.971,0,0,1,2.686,3.2,33.727,33.727,0,0,1,2.318,5.038q1.129,3.008,2.823,7.166l2.7,7.066Zm-26.3-26.47h9.906a28.783,28.783,0,0,0,4.917-.423,13.97,13.97,0,0,0,4.413-1.5,9.066,9.066,0,0,0,3.195-2.925,8.234,8.234,0,0,0,1.234-4.683,9.432,9.432,0,0,0-1.015-4.649,7.477,7.477,0,0,0-2.823-2.855,12.52,12.52,0,0,0-4.276-1.454,33.1,33.1,0,0,0-5.377-.406h-10.175Z" transform="translate(-941.518 -779.851)" fill="#fff"/>
          <path id="Trazado_3018" data-name="Trazado 3018" d="M1344.683,829.074h-4.7l20.589-49.223h5.105l20.386,49.223H1381.3l-6.053-14.4H1350.43Zm6.93-17.579H1374.1l-8.316-21.907-2.67-7.472-2.6,7.472Z" transform="translate(-1036.433 -779.851)" fill="#fff"/>
        </g>
        <path id="Trazado_3019" data-name="Trazado 3019" d="M1486.594,778.261a10.391,10.391,0,0,1-4.116-.837,10.463,10.463,0,0,1-5.663-5.642,10.47,10.47,0,0,1,0-8.238,10.632,10.632,0,0,1,2.272-3.391,10.809,10.809,0,0,1,3.391-2.265,10.506,10.506,0,0,1,8.253,0,10.516,10.516,0,0,1,5.677,5.657,10.392,10.392,0,0,1,0,8.238,10.491,10.491,0,0,1-5.677,5.642A10.477,10.477,0,0,1,1486.594,778.261Zm.028-1.407a8.607,8.607,0,0,0,3.5-.732,8.959,8.959,0,0,0,2.864-1.963,9.343,9.343,0,0,0,1.907-2.92,9.017,9.017,0,0,0,.71-3.531,9.3,9.3,0,0,0-4.467-7.971,8.66,8.66,0,0,0-8.013-.514,9.108,9.108,0,0,0-2.877,1.991,9.412,9.412,0,0,0-1.914,2.948,9.121,9.121,0,0,0-.71,3.546,9.015,9.015,0,0,0,.71,3.531,9.274,9.274,0,0,0,1.914,2.92,9.045,9.045,0,0,0,2.87,1.963A8.643,8.643,0,0,0,1486.622,776.854ZM1482.106,774v-12.79h3.982a7.949,7.949,0,0,1,4.348.922,3.073,3.073,0,0,1,1.365,2.723,3.72,3.72,0,0,1-.647,2.251,3.6,3.6,0,0,1-2.279,1.224l2.955,5.67h-2.589l-2.589-5.375h-2.237V774Zm2.279-7.021h1.646a6.2,6.2,0,0,0,2.589-.394,1.548,1.548,0,0,0,.787-1.534q0-1.28-.647-1.632a6.8,6.8,0,0,0-2.744-.352h-1.632Z" transform="translate(-1127.329 -757.043)" fill="#fff"/>
      </g>
    </g>
  </g>
</svg>
